<?xml version="1.0" standalone="no"?><!DOCTYPE svg PUBLIC "-//W3C//DTD SVG 1.1//EN" "http://www.w3.org/Graphics/SVG/1.1/DTD/svg11.dtd"><svg t="1775537080687" class="icon" viewBox="0 0 1024 1024" version="1.1" xmlns="http://www.w3.org/2000/svg" p-id="11275" xmlns:xlink="http://www.w3.org/1999/xlink" width="16" height="16"><path d="M512 0a512 512 0 1 1 0 1024A512 512 0 0 1 512 0zM406.912 336.832a49.536 49.536 0 1 0-70.08 70.08L441.92 512 336.832 617.088a49.536 49.536 0 0 0-4.8 64.512l4.8 5.568a49.536 49.536 0 0 0 70.08 0L512 582.08l105.088 105.088c17.6 17.6 45.12 19.2 64.512 4.8l5.568-4.8a49.536 49.536 0 0 0 0-70.08L582.08 512l105.088-105.088a49.536 49.536 0 0 0 4.8-64.512l-4.8-5.568a49.536 49.536 0 0 0-70.08 0L512 441.92z" fill="#8a8a8a" fill-opacity=".8" opacity=".6" p-id="11276"></path></svg>